<svg width="1200" height="720" viewBox="0 0 1200 720" fill="none" xmlns="http://www.w3.org/2000/svg">
  <rect width="1200" height="720" rx="36" fill="#0F141A"/>
  <rect x="44" y="44" width="1112" height="632" rx="28" fill="#141B23" stroke="rgba(255,255,255,0.08)"/>
  <rect x="92" y="94" width="84" height="8" rx="4" fill="#E2554D"/>
  <text x="92" y="148" fill="#F8FAFC" font-family="Arial, sans-serif" font-size="24" font-weight="700" letter-spacing="3">FULL STACK PROJECT</text>
  <text x="92" y="286" fill="#FFFFFF" font-family="Arial, sans-serif" font-size="72" font-weight="700">Central de</text>
  <text x="92" y="368" fill="#FFFFFF" font-family="Arial, sans-serif" font-size="72" font-weight="700">Compras</text>
  <text x="92" y="430" fill="#97A3B6" font-family="Arial, sans-serif" font-size="26" font-weight="400">Fluxo de compras, autenticação e regras comerciais</text>
  <rect x="92" y="500" width="136" height="44" rx="22" fill="#1D2630" stroke="rgba(255,255,255,0.1)"/>
  <rect x="244" y="500" width="160" height="44" rx="22" fill="#1D2630" stroke="rgba(255,255,255,0.1)"/>
  <rect x="420" y="500" width="136" height="44" rx="22" fill="#1D2630" stroke="rgba(255,255,255,0.1)"/>
  <rect x="572" y="500" width="162" height="44" rx="22" fill="#1D2630" stroke="rgba(255,255,255,0.1)"/>
  <text x="129" y="529" fill="#F8FAFC" font-family="Arial, sans-serif" font-size="18" font-weight="700">React</text>
  <text x="275" y="529" fill="#F8FAFC" font-family="Arial, sans-serif" font-size="18" font-weight="700">TypeScript</text>
  <text x="604" y="529" fill="#F8FAFC" font-family="Arial, sans-serif" font-size="18" font-weight="700">PostgreSQL</text>
  <text x="453" y="529" fill="#F8FAFC" font-family="Arial, sans-serif" font-size="18" font-weight="700">Node.js</text>
  <path d="M852 154H1038" stroke="#293340" stroke-width="2"/>
  <path d="M852 210H1080" stroke="#293340" stroke-width="2"/>
  <path d="M852 266H1014" stroke="#293340" stroke-width="2"/>
  <path d="M852 322H1062" stroke="#293340" stroke-width="2"/>
  <rect x="842" y="118" width="238" height="242" rx="24" stroke="#24303D" stroke-width="2"/>
  <rect x="884" y="402" width="198" height="198" rx="28" fill="#171F28" stroke="rgba(255,255,255,0.08)"/>
  <circle cx="982" cy="500" r="52" stroke="#E2554D" stroke-width="10"/>
  <circle cx="1038" cy="444" r="16" fill="#E2554D"/>
</svg>
